<svg id="header-nav" xmlns="http://www.w3.org/2000/svg" viewBox="0 0 25 25"><defs><style>.cls-1{fill:#db2748;}.cls-2{fill:#fff;}</style></defs><title>contact-icon</title><path class="cls-1" d="M4870.707,33.9414a12.5,12.5,0,1,0-12.5,12.5,12.5,12.5,0,0,0,12.5-12.5" transform="translate(-4845.707 -21.4414)"/><path class="cls-2" d="M4862.9336,31.6074l2.4512-1.414V34.19Zm-7.2022-2.2812V27.9678h9.6534v1.3584l-4.8282,2.7519Zm0,4.8642v-3.997l2.45,1.414Zm0,1.0928,3.13-3.2988,1.6953,0.9609,1.6973-.9609,3.1309,3.2988h-9.6534Z" transform="translate(-4845.707 -21.4414)"/><path class="cls-2" d="M4855.9531,40.9561a3.16,3.16,0,0,1-1.7187-.7012,11.5941,11.5941,0,0,1-2.5606-2.8731,16.5858,16.5858,0,0,1-2.1523-4.0146,4.09,4.09,0,0,1-.2481-1.9287,2.1584,2.1584,0,0,1,.8965-1.4727c0.3457-.2519.7129-0.4765,1.07-0.7158a0.2893,0.2893,0,0,1,.461.0967q0.9507,1.4751,1.9082,2.9453a0.2854,0.2854,0,0,1-.1065.457c-0.2275.1406-.4424,0.3037-0.6767,0.4346a0.442,0.442,0,0,0-.2559.5332,7.479,7.479,0,0,0,.4082,1.1768,5.1754,5.1754,0,0,0,1.4473,1.8681,0.5736,0.5736,0,0,0,.8847.0352c0.1885-.1231.3809-0.2422,0.5665-0.37a0.2876,0.2876,0,0,1,.4619.0888c0.6455,0.9883,1.2988,1.9727,1.9306,2.9707a0.3929,0.3929,0,0,1-.0634.376,16.5131,16.5131,0,0,1-1.4825.9,3.33,3.33,0,0,1-.7705.1934" transform="translate(-4845.707 -21.4414)"/></svg>